<svg xmlns="http://www.w3.org/2000/svg" id="Layer_1" viewBox="0 0 200 115">
  <style>
    .st0{fill:#EDB283;} .st1{fill:#603913;} .st2{fill:#FFFFFF;} .st3{fill:none;stroke:#000000;stroke-width:1.615;stroke-linecap:round;stroke-miterlimit:10;}
  </style>
  <circle cx="74.3" cy="62.9" r="38.7" class="st0"/>
  <circle cx="151.8" cy="62.9" r="38.7" class="st0"/>
  <path d="M120.6 29c-2.2 14.2 27 13.7 27 13.7s-6.3 17 15.6 20.2c-6 7 2 35 13 30 40-39 1-69-11-69 .2-9-13.4-8-15.2.3-2.4-5-27.2-9.8-29.4 4.4z" class="st1"/>
  <path d="M62 54c10.7 2 40.7-16.6 36-21.8-2-2.4-5.3-4-8-5.2-5-2.2-10.2-3.6-15.5-4-6.4-.3-12.7 1-18.3 4.2-7.7 4-13.2 11-17.3 18.6-1.8 2.6-3 5-3.5 8-.4 3-.6 5.8-.6 8.7 0 5 1 9.8 2.6 14.5 1 2.5 2 5 3.4 7 1 1.2 1.8 2.7 3 3.2 7 2.8 20-18.2 18-33z" class="st1"/>
  <circle cx="28.9" cy="31.7" r="22" class="st1"/>
  <path d="M42 44.7l-5.5-2.5c-2 0-3 2.4-1.7 4L40 55l28.7-22.6L42 16c-1.4-.8-3 .6-2.6 2.3l7.8 10c.5 1.4-.6 2.8-2 2.7l-9.5-5.5c-2.6-.2-4 2.7-2.5 4.7l9 14c0 .2 0 .5-.3.5z" class="st2"/>
  <path d="M88.3 62.3c10.2 4.5 16.4-4.2 16.4-4.2" class="st3"/>
  <path d="M121.2 57.4c7.4 8.3 16.7 3 16.7 3" class="st3"/>
</svg>
