<svg xmlns="http://www.w3.org/2000/svg" id="Layer_1" viewBox="0 0 300 250">
  <style>
    .st0{fill:#D42380;}
  </style>
  <path d="M256.8 141.5c-2.4-8.1 2.1-20.4.7-29-1.4-8.6-12.6-25.1-12.6-25.1-2.1-10.2-2.5-24.3-6.5-32.2-4-7.9-12.5-8.6-18.1-21.4s-3.3-17.5 5.8-19.6c9.2-2.2 9.8 7.4 8.4 11.5-1.4 4.1-3.3 4.4-6.1 4.2s-3.7-5.6-3.7-5.6 1.1 2.4 3.9 1.7 1.9-9.5-3.5-6.5c-10.3 8.7 12.6 25.1 17.8 32s7.2 34.3 7.2 34.3 12.1 17 13.1 26.7-2.7 21.5-2.1 25.8c.6 4.3 3.2 9.5 6.3 9.2s5.4-3 2.3-7.7-3.7 3.4-3.7 3.4-5-6.6 2.5-8.4 9 11.8 3.7 15.8c-5.4 4-13-1-15.4-9.1z" class="st0"/>
  <path d="M219 30.5s2.4 43.1 6.4 57.2c6.3 23.4 32.2 56.1 32.2 56.1l-.7-6s-21.8-29.5-29-51.2c-3-13.5-7-53.8-7-53.8l-1.9-2.3z" class="st0"/>
  <path d="M121.2 114.8s-29.1 16.5-19.9 36c-17.3 2.8-11.9 11-12.4 15.3-2.8-15.3-20.6-12.1-25.7-17.8-5.7-18.7-15-3.4-20.7-2-7.3-3.4-15.9-4-11.7 2.7 4.3 6.7 10.5 15 24 16.3 19 3.9 18.9 37.5 57.9 14.7l1.2 2.3s-20.6 14.3-15.3 23.5c-16.9 1.5-6.8 18.3-4.1 26.7s22.9 1 18-2.6.8-11.9.8-11.9 27.3-19.8 29-34.5-1-19.6-1.5-22.8c45.8-13.4 47.6-44.4 47.6-44.4s23.5-2.4 26.6-7.6c7-6.1 27.4-3.1 34.2-8.3 6.6-5 6.6-28.2 1-25-2 1.1-4.5 2.3-6.9 1.6-1.3-.4-2.1-1.3-3-2.3-.2-.2-.4-.5-.7-.6-1-.5-1.3 1.7-1.3 2.4 0 .8.1 1.5.4 2.3.4 1.5 1.1 2.9 1.2 4.5.1 1.9-.9 3.5-2.3 4.7-1.3 1.1-2.8 2.1-4.4 2.8-1.9.9-1.9-13-5.5-8.2-3.6 4.9-9.8 4.3-9.8 4.3s1.4-9.6-1.8-7.7-.9 16.5-9.3 12.6c-8.4-3.9-22.4 2.3-22.4 2.3l-4.2-8.1s9.3-2 18-6.8c3.4-1.9 5.8-4.5 5.6-8.6-.3-6-3.9-11.9-6.6-17.1-.5-.9-1.1-1.8-1.4-2.8-.2-.5-.2-1-.3-1.5-1.2-10.3-2.1-15.5-9.3-23.5-4.8-5.3-11.5-8.4-18.7-8.8-7.2-.4-14.5 1.7-20.8 5.1-6.6 3.5-12.4 8.5-16.7 14.6-4 5.8-6.6 12.7-6.3 19.8.1 2.9.5 3.3 1.6 6-11.9 1.8-30.2-6-35.3-9s-7-15-7-15-2.1 9 2.3 14.1c-3.6 1.1-9.7-19.2-9.7-19.2s-2.7 20.2 11 30.3C83.5 65 78.3 56 78.3 56s.5 9.5 5.9 14.4c-12.2 9-36.3-1.8-40.3-8.4-1.6 2.5 1.7 7.4 1.7 7.4s-5.2 0-9.2-11.2c-5.6 13.3 8 19 8 19S43 79 35.9 73.7C38.2 90 74.4 94.9 74.4 94.9S55.6 92.3 49.6 90c9.5 15.4 41.6 9.7 41.6 9.7s-13.6 3.9-26.9 2.1c5.8 14.4 28 10.8 28 10.8s-19.4 2.8-26.5 19.1c18.8-13.8 28.8-13.2 28.8-13.2s-9 8-2.7 13.7c7-12.8 29.3-17.4 29.3-17.4z" class="st0"/>
</svg>
