<svg xmlns="http://www.w3.org/2000/svg" id="Layer_1" viewBox="0 0 125 150">
  <style>
    .st0{fill:#452C15;} .st1{fill:#65431A;} .st2{fill:#FFFFFF;stroke:#000000;stroke-width:1.87;stroke-miterlimit:10;} .st3{stroke:#000000;stroke-width:1.87;stroke-miterlimit:10;} .st4{fill:#291111;}
  </style>
  <path d="M38 112.2s-10.3-9-11.8-7.4c1.1 1.5 1.9 3.2 1.9 3.2s-5.3-4.9-11-10.1c.1 1.9 0 2.9-.8 2.6-1.9-.7-5.3-2.6-6.7-4.5-2.8 12.5 7.7 14.1 7.7 14.1s-.9.6-4.3.2c1.2 3.8 9.7 4 9.7 4s-1.1 1.6-3.2 1.9c4.2 3.2 7.5 3.8 7.5 3.8s.9.3-.5 1.3c1.4 1.8 7.4 0 7.4 0l1.4 2.2 10.6-3.9-7.9-7.4z" class="st0"/>
  <path d="M66.1 25.2s-5.8-8.1-10.1-8.3c1.6 1.9 3.3 5 3.3 5S52.7 16 49.8 16c-2.9 0-2.7-6.1-10.3-6.4 1.8 2.7 1.8 6 1.8 6l-3.4-2.4 1.3 6.2s-1.6 0-2.4-2.5c-.2 4.2 3.8 7.3 3.8 7.3s-1.8.3-2.8-1.5c-.4 2.8 3.7 5.2 3.7 5.2s0 .9-2.5-.1c.6 2.8 4.5 3 4.5 3s-2.3.6-2.8 2.4c2.1-.6 4.4 0 4.4 0S40.7 37 40.8 39c2.5-1.5 3-.6 3-.6s-3.6 3.7-2.4 6.8c.8-2.9 2.7-3.8 2.7-3.8s-2.7 6.2-.3 7.9c0-2 1.3-3 1.3-3s11.2 37.4 29.1 38.6 31.4-38.3 31.4-38.3l.9 2.5v-7.2l2.1 3.4-1.2-6.6 2.2.4-4.5-6.1s2.5-.7 4.5.7c1.1-2-2-3.1-2-3.1s3.8.2 4.4-2.9c-1.5.4-3.5.1-3.5.1s4.3-1.5 4.7-5.1c-1.9 1-3.1.2-3.1.2s5.4-.6 4.2-7.2c-1.2 1.4-3.9 2.8-3.9 2.8s2.9-4.5 2.1-7.2c-2.1 2.7-3.8 4.5-3.8 4.5s-1.8-3.6 2.6-6.2c-7-2.3-6.6 5.7-11.2 5.8-4.7.1-8.6 5.2-8.6 5.2s.2-1.9 2.8-3.8C90.8 15.2 82.7 25 82.7 25l-16.6.2z" class="st0"/>
  <path d="M61 27.9c-.6-9-11.9-3.4-17.7-13.1-1.5 4.7 3 8 3 8s-1.4.6-4.3-1.8c-.4 4.5 6 5.5 6 5.5s-.5 1.9-4.9-.1c2.3 5.9 4.6 3.2 4.9 5 .3 1.8-2.9 6.1-.7 12.2 3.1-.1 14.4-10.1 13.7-15.7z" class="st1"/>
  <path d="M87.8 27.9c.6-9 11.9-3.4 17.7-13.1 1.5 4.7-3 8-3 8s1.4.6 4.3-1.8c.4 4.5-6 5.5-6 5.5s.5 1.9 4.9-.1c-2.3 5.9-4.6 3.2-4.9 5-.3 1.8 2.9 6.1.7 12.2-3.1-.1-14.3-10.1-13.7-15.7z" class="st1"/>
  <path d="M59.1 75.6L48.8 96.2S38.2 92.1 35.6 99c1.2-.5 1.9-.1 1.9-.1s-4.1 3.1-2.7 5.9c1.2-.9 1.7-.6 1.7-.6s-2.5 3.4-.4 5.6c.7-.8 1.5-.9 1.5-.9s-2.1 3.6 5.8 10.1c-16.3 2.7-7.1 17.2-3 13.9 2.7 2.5 6.1.3 6.7-.5 3.7 4.1 7.9-.7 7.9-.7s1.4 5.7 6.9 4c3.1 4.3 8.1 1.3 8.4.5 3.1.6 4.1-1.8 4.1-1.8s2.2 3.3 5 1.5c5.5 3.5 7.7 0 8.2-.7 3.8 1.4 6.3-2.2 6.3-2.2s2.7.5 3.2-.5c2.4 2.6 5.2.5 5.2.5s1.9 2.4 5-2.5c5.5-11.6-9-11.4-9-11.4s6.4-6.9 5.8-10.9c1.4 0 2 1.3 2 1.3s.2-4.4-1.8-6.1c-.5-1 2 .1 2 .1s0-2.2-2.8-4.9c1.4-.5 1.9.2 2.3.7.1-5.7-11.6-5.1-11.6-5.1s.4-14-6.9-22.8c-8.4 8.3-28.2 4.2-28.2 4.2z" class="st0"/>
  <path d="M68.6 41c0 .5-.1 1-.2 1.5-.4 1.7-1.7 2.9-3.1 2.9-1.4 0-2.6-1.2-3.1-2.9-.1-.5-.2-1-.2-1.5 0-2.4 1.5-4.4 3.3-4.4 1.9 0 3.3 2 3.3 4.4z" class="st2"/>
  <path d="M68.4 42.5c-.4 1.7-1.7 2.9-3.1 2.9-1.4 0-2.6-1.2-3.1-2.9.8-.7 1.9-1.1 3.1-1.1 1.2 0 2.3.4 3.1 1.1z" class="st3"/>
  <path d="M86.4 41c0 .5-.1 1-.2 1.5-.4 1.7-1.7 2.9-3.1 2.9-1.4 0-2.6-1.2-3.1-2.9-.1-.5-.2-1-.2-1.5 0-2.4 1.5-4.4 3.3-4.4 1.9 0 3.3 2 3.3 4.4z" class="st2"/>
  <path d="M86.3 42.5c-.4 1.7-1.7 2.9-3.1 2.9-1.4 0-2.6-1.2-3.1-2.9.8-.7 1.9-1.1 3.1-1.1 1.1 0 2.2.4 3.1 1.1z" class="st3"/>
  <path d="M73.7 24.7s-2.5-4.3-9.6-3.4l3.6 2.6S57.6 22.4 52 27.1c3.9.1 3.5.8 3.5.8s-14.1 4.3-9.7 23.9c-3.7 3.9 0 11.5 0 11.5l3.2-6.5s-4.4 9.1 1.6 17.9c0-18.3 5.1-16.8 6-17.2C53.7 41.1 62.2 34 62.2 34s-3.8 5.6-2.4 8.1c1.8-6.4 4-6.7 4-6.7s-2.8 5.6-.2 10c.4-4.6 1.7-9.6 1.7-9.6s.1 3.7 2.2 7.1c-.2-1.7-1.6-8.7 3.2-11.9-2.1 5.3 3.8 11.7 3.8 11.7s5-2.4 2.6-12.3c5.2 1.9 4.4 10.4 4 12.2 2.5-1 1.9-6.9 1.9-6.9s2.1 5 1.8 8.9c2.2-1.2 0-8.9 0-8.9l4.3 5.9-2.6-7.4s10.1 9.6 6.6 24c2.1-.4 6.4 2.9 4.5 16.8 4.2-.6 5-12.4 2-17.4 1.8-1.9 3.1 5.7 3.1 5.7s4.9-6.9 0-11.4c5.5-17.2-9.2-24.1-9.2-24.1s2.3-.1 4.6.5C92.9 21.7 84.4 23 80.4 24c.6-.9 2.1-1.8 4.4-2.2-3.9-2.2-11.1 2.9-11.1 2.9z" class="st4"/>
  <path d="M75 51.2s-2-5-7.1-5.3c2.1 1.4 2.7 3.4 2.7 3.4s-3.1-2.2-7.1-1.3c2.6.3 3.8 1.9 3.8 1.9s-6.8-.5-10.6 2.6c1.6-.3 2-.6 3.1 0-18.4 13.5-4.1 25.2-4.1 29.1 1.9-.8 2-6 2-6s2.2 4.1-1.8 9c5.1-.2 5.5-5.9 5.5-5.9s2.8 1.8-.9 7.5c4.5.8 4.7-3.3 4.7-3.3s2.8 3.7 9.8 3.3 10.3-2.7 10.3-2.7.5 3.3 4.8 3.4c-3.9-4.1-1.6-7.8-1.6-7.8s1 5.7 4.6 6.1c-3.5-5.6 0-9.3 0-9.3s-.2 3 1.4 4.7c.4-4.9 11.1-14.6-4.4-28.5.4-.1 1.8 0 3.5.9-1.1-5-10.8-3.4-10.8-3.4s1.2-1.3 3.5-1.7c-2-1.3-7 1-7 1s.3-1.3 2.5-2.4c-4.8-.8-6.8 4.7-6.8 4.7z" class="st1"/>
  <path d="M68.6 87.6c-5.2-4-1.2-9.6-.3-10-.4 2 1.3 3.8 1.3 3.8s1.3-4.9 1.8-5.5c.9 1 1.9 3.6 1.9 3.6s.3-3.3 1.5-4.5c1 1.1 1.6 4.3 1.6 4.3s.9-2.6 1.6-3.2c.8 1.1 2 4.9 2 4.9s1.1-1.7 1.2-3.2c1.5.7 5.8 7-.6 9.8 1-2.3.4-2.5.4-2.5s-4.5 5.2-6.4 4.9c-1.9-.2-6.1-4.9-6.1-4.9s-.1.3.1 2.5z" class="st4"/>
  <path d="M64.4 60.3s-1.2-1.2.4-2.8c-10.1 5.1-3.3 19-1.8 20-.2-3.2 1.3-5.9 1.3-5.9s.1 4.2 2.2 5.1c-.5-1.8 0-5.9 2.3-7.2.4 2 1.7 4.1 1.7 4.1s5-4.7 3.6-8.9c-.7 1.8 4.6 9.2 4.6 9.2s1.9-2.6 1.3-5.1c1.5.6 2.6 8 2.6 8s2.3-.4 1.5-5.1c2 0 1.9 6.1 1.9 6.1s9-16-1.4-20c1.8 1.7.5 2.8.5 2.8s-1-2.5-2.6-1.8c.9 1.4-.2 2.2-.2 2.2s-2-.1-2.5-1.3c-.8 1 .1 1.7.1 1.7s-3.7 1-4.7-1c-1.1 1.4-5.9 1.1-5.9 1.1s1.3-.9.7-1.8c-1.3.8-3 1.3-3 1.3s-.4-1.7.4-2.5c-1.4-.3-3 1.8-3 1.8z" class="st0"/>
  <path d="M71.3 56.2c-.6-.6-4.6-4.6 3.9-4.6s4.7 4.4 4 5.1c-.7.7-.2 1 0 2s-3.9 1.5-3.9 1.5-3.7-.5-3.9-1.5c-.2-.6.5-1.9-.1-2.5z"/>
</svg>
