<svg xmlns="http://www.w3.org/2000/svg" id="Layer_1" viewBox="0 0 125 150">
  <style>
    .st0{fill:#E9579E;} .st1{fill:#EDB283;} .st2{fill:#603913;} .st3{fill:#FFFFFF;} .st4{fill:#BE1E2D;} .st5{fill:#911A1F;} .st6{fill:#262262;}
  </style>
  <path d="M6.7 82s8.2-27.7 9.4-33.4 9-5.7 9-5.7 9 9.4 18.7 0c2.5 0 8.1-.8 9.4 4.3s8.3 33.1 8.3 33.1l-7.3 1.3-9.7-24c-.4 3.2-.5 6.4-.6 9.5-.1 5.3-.5 11.4 2.8 15.8 6.4 8.6 10.6 19 14.9 28.8H8.7c2.1-6.3 4.4-12.5 6.9-18.6.9-2.1 1.8-4.3 2.9-6.3 1.3-2.5 3-4.5 3.8-7.2.6-2.2.9-4.4 1.1-6.6.4-4.2.3-8.4.1-12.6 0-.7-.1-1.3-.1-2l-9.1 24.5-7.6-.9z" class="st0"/>
  <circle cx="34.1" cy="25.7" r="12.3" class="st1"/>
  <path d="M21.9 23.7c8-.5 12.3-10.2 12.3-10.2S23.8 13 21.9 23.7z" class="st2"/>
  <path d="M46.2 23.7c-8-.5-12.3-10.2-12.3-10.2s10.5-.5 12.3 10.2z" class="st2"/>
  <path d="M25.1 42.9C29.3 41.6 31 37 31 37l6.9-.1s2.8 5.4 6 6c-2.3 2.6-10.5 8-18.8 0z" class="st1"/>
  <circle cx="92.3" cy="20.2" r="10.7" class="st1"/>
  <path d="M85 35.1c4.2-1.3 3.9-6 3.9-6l7.3-.1s.7 5.5 3.9 6.1c-2.1 2.6-9.2 7.9-15.1 0z" class="st1"/>
  <path d="M25.1 16s-6.9-7.4-10.5-4.7c-1.6 1.2-1.5 4.2-1.5 6 0 3 .3 6 .6 9 .1 1.1.3 2.2.4 3.4.1 1.2.5 2.8-.3 3.9-.4.6-1.1.9-1.8 1.1-.7.2-1.6.3-2.4.2 0 0 1.1 1.9 1.3 2 .6.6 1.3 1 2.1 1.3 2.8.9 5.9-.2 7.2-2.9 1.2-2.4 1.1-5.4.8-8-.4-3.2-1.5-6.2-2.6-9.3-.1-.2-.2-.4-.1-.7.1-.4.4-.6.7-.7 1-.4 2.3-.4 3.4-.2.3 0 1.9.5 2.1.2l.6-.6z" class="st2"/>
  <path d="M43 16s6.9-7.4 10.5-4.7c1.6 1.2 1.5 4.2 1.5 6 0 3-.3 6-.6 9-.1 1.1-.3 2.2-.4 3.4-.1 1.2-.5 2.8.3 3.9.4.6 1.1.9 1.8 1.1.7.2 1.6.3 2.4.2 0 0-1.1 1.9-1.3 2-.6.6-1.3 1-2.1 1.3-2.8.9-5.9-.2-7.2-2.9-1.2-2.4-1.1-5.4-.8-8 .4-3.2 1.5-6.2 2.6-9.3.1-.2.2-.4.1-.7-.1-.4-.4-.6-.7-.7-1-.4-2.3-.4-3.4-.2-.3 0-1.9.5-2.1.2L43 16z" class="st2"/>
  <path d="M23.3 17.5c-.6.5.5 1.3.7.5.8.4 1.1-.3 1-.5 1 0 .9-1.2.6-1.2.7-.4.2-1.2-.3-.9-.2-.5-.9-.4-1 .1-.4-.2-.8.3-.6.8-1 .3-.7 1.2-.4 1.2z" class="st0"/>
  <path d="M44 17.9c.4.6 1.3-.4.5-.7.5-.8-.3-1.2-.5-1 0-1-1.1-1-1.1-.7-.4-.7-1.2-.3-1 .2-.5.2-.4.9 0 1-.2.3.3.8.8.6.4 1.1 1.2.9 1.3.6z" class="st0"/>
  <path d="M25.7 111.7h5.6s.8 22.3 0 24.9c-.8 4-13.4 6-13.4 0s7.7-3.3 7.7-3.3l.1-21.6z" class="st1"/>
  <path d="M23.5 136.5l.1-3.7s-5.7-1.6-5.7 3.9c0 6.3 13.4 3.1 13.4-.1-.9-.1-7.8-.1-7.8-.1z" class="st0"/>
  <path d="M41.7 111.7h-5.6s-.8 22.3 0 24.9c.8 4 13.4 6 13.4 0s-7.7-3.3-7.7-3.3l-.1-21.6z" class="st1"/>
  <path d="M43.9 136.5l-.1-3.7s5.7-1.6 5.7 3.9c0 6.3-13.4 3.1-13.4-.1.9-.1 7.8-.1 7.8-.1z" class="st0"/>
  <path d="M12.9 82.5l.1 1.7s2.5.4 2.3 1.3c-.2.9-2.6-.1-2.6-.1s1.1 2.8.3 3.1-1.8-2.8-1.8-2.8-.4 3.2-1.4 3c-1-.2.1-3.1.1-3.1S8 88.3 7.1 87.7s1.5-3 1.5-3-3.2 1.3-3.2.3c0-1.1 3-1.7 3-1.7l.1-1.4 4.4.6z" class="st1"/>
  <path d="M55.8 81.3l.1 1.7s-2.5.6-2.2 1.5c.3.9 2.6-.3 2.6-.3s-.9 2.8-.1 3.1 1.6-2.9 1.6-2.9.7 3.2 1.7 2.9c1-.3-.3-3.1-.3-3.1s2.1 2.6 2.9 1.9-1.8-2.8-1.8-2.8 3.3 1 3.2.1c-.1-1.1-3.1-1.5-3.1-1.5l-.4-1.3-4.2.7z" class="st1"/>
  <path d="M74.4 79.3l.1 1.7s2.5.4 2.3 1.3c-.2.9-2.5-.1-2.5-.1s1.1 2.7.3 3c-.8.3-1.7-2.7-1.7-2.7s-.4 3.1-1.4 3 .1-3 .1-3-1.8 2.7-2.7 2.1c-.9-.6 1.5-2.9 1.5-2.9s-3.1 1.3-3.1.3c0-1.1 2.9-1.6 2.9-1.6l.1-1.4 4.1.3z" class="st1"/>
  <path d="M112.7 79.8l.3 1.4s-2.2.4-2 1.2c.2.8 2.2-.1 2.2-.1s-.9 2.4-.2 2.6 1.5-2.4 1.5-2.4.4 2.7 1.3 2.6c.9-.2-.1-2.7-.1-2.7s1.7 2.3 2.4 1.8c.8-.6-1.4-2.5-1.4-2.5s2.8 1.1 2.7.2c0-1-2.6-1.4-2.6-1.4l-.1-1.3-4 .6z" class="st1"/>
  <path d="M27.3 25.8c1.1 1.6 4.5 1.9 5.5 0-1-1.6-3.7-2.1-5.5 0z" class="st3"/>
  <circle cx="30" cy="25.7" r="1.3" class="st2"/>
  <circle cx="30" cy="25.7" r=".4"/>
  <circle cx="29.6" cy="25.4" r=".2" class="st3"/>
  <path d="M40.8 25.8c-1.1 1.6-4.5 1.9-5.5 0 .9-1.6 3.7-2.1 5.5 0z" class="st3"/>
  <circle cx="38" cy="25.7" r="1.3" class="st2"/>
  <circle cx="38.1" cy="25.7" r=".4"/>
  <circle cx="38.4" cy="25.4" r=".2" class="st3"/>
  <path d="M34.1 32.3s-.7-.6-1.6-.2c-.9.4-3.1.4-3.1.4s2.8 1.5 5 1.5 4.5-1.6 4.5-1.6-1.8.1-3.1-.3c-1.4-.3-1.7.2-1.7.2z" class="st4"/>
  <path d="M77.2 135.7s-7 .7-6.5 4.3 10.8 2 11.2.6.4-4.9.4-4.9h-5.1" class="st5"/>
  <path d="M103.6 135.7s7 .7 6.5 4.3-10.8 2-11.2.6-.4-4.9-.4-4.9h5.1" class="st5"/>
  <path d="M86.6 19.5c.9 1.3 3.8 1.6 4.6 0-.8-1.3-3-1.7-4.6 0z" class="st3"/>
  <circle cx="89" cy="19.5" r="1.1" class="st2"/>
  <circle cx="88.9" cy="19.5" r=".4"/>
  <circle cx="88.6" cy="19.2" r=".2" class="st3"/>
  <path d="M97.9 19.5c-.9 1.3-3.8 1.6-4.6 0 .8-1.3 3.1-1.7 4.6 0z" class="st3"/>
  <circle cx="95.6" cy="19.5" r="1.1" class="st2"/>
  <circle cx="95.7" cy="19.5" r=".4"/>
  <circle cx="96" cy="19.2" r=".2" class="st3"/>
  <path d="M92.3 24.9s-.6-.5-1.4-.1-2.6.4-2.6.4 2.3 1.2 4.2 1.2 3.8-1.4 3.8-1.4-1.5.1-2.6-.2c-1.1-.3-1.4.1-1.4.1z" class="st4"/>
  <path d="M90.1 14.1s7.5 4.3 12.8 4.5c-2-10.8-12.3-9-12.3-9V7.5l-1.3 2-1.7-.9.6 1.6s-4.7 1.9-6.2 7.1c2.9.6 6.7-3 6.7-3l.9.9.5-1.1z" class="st2"/>
  <path d="M78.4 81.9h27.5l2.6 55.4h-12l-4.7-36.1-7.5 36.1H72.7z" class="st6"/>
  <path d="M78.4 81.9l2.5-32.3-6.1 29.9-6.8-.8s7.5-34.4 8.1-38.5c.8-5.1 7.8-5.1 8.9-5.1 7.2 9.3 15.1 0 15.1 0s7.4.2 8.4 4.5 9.5 39.2 9.5 39.2l-7.3 1.3-6.6-30.2 1.8 32H78.4z" class="st5"/>
</svg>
