<svg xmlns="http://www.w3.org/2000/svg" id="Layer_1" viewBox="0 0 225 200">
  <style>
    .st0{fill:#BF9E2F;} .st1{fill:#BE1E2D;} .st2{fill:none;stroke:#BF9E2F;stroke-width:2;stroke-miterlimit:10;} .st3{fill:none;stroke:#BE1E2D;stroke-width:2;stroke-miterlimit:10;} .st4{fill:#BE1E2D;stroke:#BE1E2D;stroke-width:2;stroke-miterlimit:10;}
  </style>
  <path d="M19.2 70.3c33.8 4.2 163.5-14 190.2-23.8-35-4.2-158.8 10-190.2 23.8z" class="st0"/>
  <path d="M110.4 25.8C99 6.6 78.4 29.8 93 41.5c9 7.3 16.3 13.6 17.4 16.5 1.2-3 14.5-14 18-17 13.8-13.2-7.6-32.8-18-15.2z" class="st1"/>
  <ellipse cx="16.3" cy="70" transform="rotate(-7.134 16.272 70.034)" class="st0" rx="4.7" ry="4.7"/>
  <ellipse cx="209.3" cy="45.9" transform="rotate(-7.134 209.332 45.865)" class="st0" rx="4.7" ry="4.7"/>
  <path d="M104.4 64v83.2c0 2.7.3 5.5-.8 8l-5 11.6-36.5.6v15h103l-.4-15.7-38.6.3c-1.7-2.4-3-5-4.8-7.3-1-2-3-4-3.8-6.2-.2-.7-.2-1.4-.2-2 0-11 0-22-.2-32.8 0-12 0-23.8-.2-35.7V63l-12.5 1z" class="st0"/>
  <path d="M39.3 124.2l38-1s-7.4 11.2-19 11.2-19-10.2-19-10.2z" class="st0"/>
  <path d="M57.4 68.3l-17.2 56.2" class="st2"/>
  <path d="M61 66.8l15.3 56.7" class="st2"/>
  <path d="M143 109l38-1s-7.3 11.3-19 11.3c-11.6 0-19-10.2-19-10.2z" class="st0"/>
  <path d="M161 53.2l-17 56.2" class="st2"/>
  <path d="M164.8 51.7l15.3 56.7" class="st2"/>
  <circle cx="59" cy="90.6" r="4.5" class="st3"/>
  <path d="M59 95v21.3" class="st3"/>
  <path d="M59 116.3l-7.2 7.2" class="st3"/>
  <path d="M59 116.3l6.8 6.8" class="st3"/>
  <path d="M51.8 101.2h15.4" class="st3"/>
  <circle cx="162.1" cy="74" r="4.5" class="st3"/>
  <path d="M162 78.5v21.2" class="st3"/>
  <path d="M158.5 99.7v8.7" class="st3"/>
  <path d="M165.3 99.7v8.7" class="st3"/>
  <path d="M155 84.6h15.3" class="st3"/>
  <path d="M153.5 99.7l8.6-8.5 8.8 8.5z" class="st4"/>
</svg>
