<svg xmlns="http://www.w3.org/2000/svg" id="Layer_1" viewBox="0 0 189 163">
  <style>
    .st0{fill:#D42380;} .st1{fill:#FFFFFF;}
  </style>
  <path d="M94.1 35.1C50.5-38.3-28.1 50 27.3 95.2c34.4 28.1 62.6 52 66.8 63 4.6-11 55.3-53.7 68.9-64.7C215.8 42.8 133.8-32 94.1 35.1z" class="st0"/>
  <path d="M30.9 41.9v6.8c0 2.5 1.1 3.6 2.7 3.6 1.7 0 2.8-1.1 2.8-3.6v-6.8h1.5v6.7c0 3.5-1.8 4.9-4.3 4.9-2.3 0-4.1-1.3-4.1-4.9v-6.7h1.4z" class="st1"/>
  <path d="M40.3 41.9h1.5v5.5h.1l.9-1.2 3.5-4.3h1.8L44 46.7l4.4 6.6h-1.7L43 47.7 41.8 49v4.3h-1.5V41.9z" class="st1"/>
  <path d="M55.5 54.8v-1.7c-1 0-2-.3-2.6-.7l.4-1.1c.6.4 1.5.7 2.4.7 1.2 0 2-.7 2-1.7 0-.9-.7-1.5-1.9-2-1.7-.7-2.8-1.5-2.8-2.9s1-2.5 2.5-2.7V41h1.1v1.6c1 0 1.7.3 2.2.6l-.4 1.1c-.4-.2-1-.6-2.1-.6-1.3 0-1.8.8-1.8 1.5 0 .9.6 1.3 2.1 1.9 1.7.7 2.6 1.6 2.6 3.1 0 1.4-.9 2.6-2.7 2.9v1.8h-1z" class="st1"/>
  <path d="M64.5 43.7l-1.9 1-.3-1.1 2.4-1.3H66v11h-1.4v-9.6z" class="st1"/>
  <path d="M70 52.4c0-.6.4-1.1 1-1.1s1 .4 1 1.1c0 .6-.4 1.1-1 1.1s-1-.4-1-1.1z" class="st1"/>
  <path d="M79.7 43.4c-.3 0-.7 0-1.1.1-2.4.4-3.6 2.1-3.8 3.9.5-.7 1.5-1.3 2.7-1.3 1.9 0 3.3 1.4 3.3 3.6 0 2-1.4 3.9-3.7 3.9-2.3 0-3.9-1.8-3.9-4.7 0-2.2.8-3.9 1.9-5 .9-.9 2.1-1.5 3.5-1.6.4-.1.8-.1 1.1-.1v1.2zm-.4 6.3c0-1.6-.9-2.5-2.3-2.5-.9 0-1.7.5-2.1 1.4-.1.2-.2.4-.2.6 0 1.8.9 3.2 2.4 3.2 1.3 0 2.2-1.1 2.2-2.7z" class="st1"/>
  <path d="M86.1 41.3h1.5v5.1c.5-.9 1.5-1.5 2.8-1.5 2 0 3.5 1.7 3.5 4.2 0 2.9-1.9 4.4-3.7 4.4-1.2 0-2.1-.5-2.8-1.5l-.1 1.3H86c0-.6.1-1.4.1-2.1v-9.9zm1.5 8.7c0 .2 0 .4.1.5.3 1 1.1 1.7 2.2 1.7 1.6 0 2.5-1.3 2.5-3.1 0-1.6-.8-3-2.5-3-1 0-1.9.7-2.2 1.8-.1.2-.1.4-.1.6V50z" class="st1"/>
  <path d="M97.4 42.8c0 .5-.4.9-.9.9s-.9-.4-.9-.9.4-.9.9-.9.9.4.9.9zm-1.6 10.5v-8.2h1.5v8.2h-1.5z" class="st1"/>
  <path d="M99.7 41.3h1.5v12h-1.5v-12z" class="st1"/>
  <path d="M103.7 41.3h1.5v12h-1.5v-12z" class="st1"/>
  <path d="M109.3 42.8c0 .5-.4.9-.9.9s-.9-.4-.9-.9.4-.9.9-.9c.6 0 .9.4.9.9zm-1.6 10.5v-8.2h1.5v8.2h-1.5z" class="st1"/>
  <path d="M119.1 49.2c0 3-2.1 4.3-4.1 4.3-2.2 0-3.9-1.6-3.9-4.2 0-2.7 1.8-4.3 4.1-4.3s3.9 1.7 3.9 4.2zm-6.5 0c0 1.8 1 3.1 2.5 3.1 1.4 0 2.5-1.3 2.5-3.2 0-1.4-.7-3.1-2.5-3.1-1.8.1-2.5 1.7-2.5 3.2z" class="st1"/>
  <path d="M120.9 47.4c0-.9 0-1.5-.1-2.2h1.3l.1 1.4c.4-.8 1.4-1.5 2.7-1.5 1.1 0 2.9.7 2.9 3.5v4.9h-1.5v-4.7c0-1.3-.5-2.4-1.9-2.4-1 0-1.7.7-2 1.5-.1.2-.1.4-.1.7v4.9h-1.5v-6.1z" class="st1"/>
  <path d="M135.4 41.9v6.8c0 2.5 1.1 3.6 2.7 3.6 1.7 0 2.8-1.1 2.8-3.6v-6.8h1.5v6.7c0 3.5-1.8 4.9-4.3 4.9-2.3 0-4.1-1.3-4.1-4.9v-6.7h1.4z" class="st1"/>
  <path d="M144.7 51.5c.7.4 1.6.7 2.6.7 1.5 0 2.4-.8 2.4-1.9 0-1-.6-1.7-2.1-2.2-1.9-.7-3-1.7-3-3.2 0-1.8 1.5-3.1 3.7-3.1 1.1 0 2 .3 2.5.6l-.4 1.2c-.4-.2-1.1-.5-2.1-.5-1.6 0-2.1.9-2.1 1.7 0 1.1.7 1.6 2.3 2.2 1.9.7 2.9 1.7 2.9 3.3 0 1.8-1.3 3.3-4 3.3-1.1 0-2.3-.3-2.9-.7l.2-1.4z" class="st1"/>
  <path d="M153.2 42.1c.9-.2 2-.3 3.1-.3 2.1 0 3.6.5 4.6 1.4 1 .9 1.6 2.2 1.6 4.1 0 1.9-.6 3.4-1.6 4.4-1.1 1.1-2.8 1.6-5.1 1.6-1.1 0-1.9-.1-2.7-.1V42.1zm1.5 10.1c.4.1.9.1 1.5.1 3.2 0 4.9-1.8 4.9-4.8 0-2.7-1.5-4.4-4.6-4.4-.8 0-1.3.1-1.7.2v8.9z" class="st1"/>
  <path d="M26.1 63.5h-3.5v-1.3H31v1.3h-3.5v10.1H26V63.5z" class="st1"/>
  <path d="M32.1 61.6h1.5v5.1c.2-.4.6-.8 1.1-1.1.4-.3 1-.4 1.5-.4 1.1 0 2.9.7 2.9 3.5v4.9h-1.5v-4.7c0-1.3-.5-2.4-1.9-2.4-1 0-1.7.7-2 1.5-.1.2-.1.4-.1.7v4.9h-1.5v-12z" class="st1"/>
  <path d="M42.3 69.8c0 2 1.3 2.8 2.8 2.8 1.1 0 1.7-.2 2.3-.4l.3 1.1c-.5.2-1.4.5-2.7.5-2.5 0-4-1.7-4-4.1s1.5-4.4 3.8-4.4c2.7 0 3.4 2.3 3.4 3.8 0 .3 0 .5-.1.7h-5.8zm4.4-1.1c0-.9-.4-2.4-2.1-2.4-1.5 0-2.2 1.4-2.3 2.4h4.4z" class="st1"/>
  <path d="M61 69.4c0 3-2.1 4.3-4.1 4.3-2.2 0-3.9-1.6-3.9-4.2 0-2.7 1.8-4.3 4.1-4.3 2.3.1 3.9 1.8 3.9 4.2zm-6.5.1c0 1.8 1 3.1 2.5 3.1 1.4 0 2.5-1.3 2.5-3.2 0-1.4-.7-3.1-2.5-3.1-1.7.1-2.5 1.7-2.5 3.2z" class="st1"/>
  <path d="M63.3 65.4l1.6 4.6c.3.8.5 1.4.7 2.1h.1c.2-.7.4-1.4.7-2.1l1.6-4.6h1.6l-3.2 8.2H65l-3.1-8.2h1.4z" class="st1"/>
  <path d="M71.5 69.8c0 2 1.3 2.8 2.8 2.8 1.1 0 1.7-.2 2.3-.4l.3 1.1c-.5.2-1.4.5-2.7.5-2.5 0-4-1.7-4-4.1s1.5-4.4 3.8-4.4c2.7 0 3.4 2.3 3.4 3.8 0 .3 0 .5-.1.7h-5.8zm4.4-1.1c0-.9-.4-2.4-2.1-2.4-1.5 0-2.2 1.4-2.3 2.4h4.4z" class="st1"/>
  <path d="M79.2 68c0-1 0-1.8-.1-2.6h1.3l.1 1.6h.1c.4-1.1 1.3-1.8 2.3-1.8h.4v1.4h-.5c-1 0-1.8.8-2 1.9 0 .2-.1.5-.1.7v4.4h-1.5V68z" class="st1"/>
  <path d="M90.3 71.6c0 .7 0 1.4.1 2h-1.3l-.1-1c-.5.6-1.3 1.2-2.5 1.2-1.7 0-2.5-1.2-2.5-2.3 0-2 1.8-3.1 4.9-3v-.2c0-.7-.2-1.9-1.9-1.9-.8 0-1.6.2-2.1.6l-.3-1c.7-.4 1.7-.7 2.7-.7 2.5 0 3.1 1.7 3.1 3.3v3zm-1.4-2.2c-1.6 0-3.5.3-3.5 1.8 0 1 .6 1.4 1.4 1.4 1.1 0 1.8-.7 2-1.4.1-.2.1-.3.1-.5v-1.3z" class="st1"/>
  <path d="M92.7 61.6h1.5v12h-1.5v-12z" class="st1"/>
  <path d="M96.7 61.6h1.5v12h-1.5v-12z" class="st1"/>
  <path d="M105.1 69.8c0 2 1.3 2.8 2.8 2.8 1.1 0 1.7-.2 2.3-.4l.3 1.1c-.5.2-1.4.5-2.7.5-2.5 0-4-1.7-4-4.1s1.5-4.4 3.8-4.4c2.7 0 3.4 2.3 3.4 3.8 0 .3 0 .5-.1.7h-5.8zm4.4-1.1c0-.9-.4-2.4-2.1-2.4-1.5 0-2.2 1.4-2.3 2.4h4.4z" class="st1"/>
  <path d="M113.4 65.4l1.2 1.8c.3.5.6.9.8 1.3.3-.5.5-.9.8-1.3l1.1-1.7h1.6l-2.8 4 2.9 4.2h-1.7l-1.2-1.8c-.3-.5-.6-.9-.9-1.4-.3.5-.5.9-.9 1.4l-1.2 1.8h-1.6l2.9-4.2-2.8-4h1.8z" class="st1"/>
  <path d="M120.6 68.1c0-1 0-1.9-.1-2.7h1.3l.1 1.4c.6-1 1.6-1.6 2.9-1.6 2 0 3.5 1.7 3.5 4.1 0 2.9-1.8 4.4-3.7 4.4-1.1 0-2-.5-2.5-1.3V77h-1.5v-8.9zm1.4 2.2c0 .2 0 .4.1.6.3 1 1.2 1.7 2.2 1.7 1.6 0 2.5-1.3 2.5-3.2 0-1.6-.9-3-2.4-3-1 0-2 .7-2.2 1.8-.1.2-.1.4-.1.6v1.5z" class="st1"/>
  <path d="M131 69.8c0 2 1.3 2.8 2.8 2.8 1.1 0 1.7-.2 2.3-.4l.3 1.1c-.5.2-1.4.5-2.7.5-2.5 0-4-1.7-4-4.1s1.5-4.4 3.8-4.4c2.7 0 3.4 2.3 3.4 3.8 0 .3 0 .5-.1.7H131zm4.4-1.1c0-.9-.4-2.4-2.1-2.4-1.5 0-2.2 1.4-2.3 2.4h4.4z" class="st1"/>
  <path d="M144.5 73.3c-.4.2-1.3.5-2.4.5-2.5 0-4.1-1.7-4.1-4.2s1.7-4.4 4.4-4.4c.9 0 1.7.2 2.1.4l-.3 1.1c-.4-.2-.9-.4-1.7-.4-1.9 0-2.9 1.4-2.9 3.1 0 1.9 1.2 3.1 2.8 3.1.8 0 1.4-.2 1.8-.4l.3 1.2z" class="st1"/>
  <path d="M148.2 63.5v2h2.1v1.1h-2.1V71c0 1 .3 1.6 1.1 1.6.4 0 .6 0 .9-.1l.1 1.1c-.3.1-.7.2-1.3.2-.7 0-1.3-.2-1.6-.6-.4-.5-.6-1.2-.6-2.1v-4.5h-1.3v-1.1h1.3V64l1.4-.5z" class="st1"/>
  <path d="M152.8 69.8c0 2 1.3 2.8 2.8 2.8 1.1 0 1.7-.2 2.3-.4l.3 1.1c-.5.2-1.4.5-2.7.5-2.5 0-4-1.7-4-4.1s1.5-4.4 3.8-4.4c2.7 0 3.4 2.3 3.4 3.8 0 .3 0 .5-.1.7h-5.8zm4.3-1.1c0-.9-.4-2.4-2.1-2.4-1.5 0-2.2 1.4-2.3 2.4h4.4z" class="st1"/>
  <path d="M167.5 61.6v9.9c0 .7 0 1.6.1 2.1h-1.3l-.1-1.4h-.1c-.4.9-1.4 1.6-2.8 1.6-2 0-3.5-1.7-3.5-4.2 0-2.7 1.7-4.4 3.7-4.4 1.3 0 2.1.6 2.5 1.2v-4.9h1.5zm-1.5 7.2c0-.2 0-.4-.1-.6-.2-.9-1-1.7-2.1-1.7-1.5 0-2.5 1.4-2.5 3.1 0 1.7.8 3 2.4 3 1 0 1.9-.7 2.2-1.8.1-.2.1-.4.1-.6v-1.4z" class="st1"/>
  <path d="M45.6 92.4c.5.3 1.2.6 2 .6 1.1 0 1.6-.5 1.6-1.2s-.4-1.1-1.5-1.5c-1.5-.5-2.2-1.3-2.2-2.3 0-1.3 1.1-2.4 2.8-2.4.8 0 1.6.2 2 .5l-.3 1c-.3-.2-.9-.5-1.7-.5-.9 0-1.4.5-1.4 1.1 0 .7.5 1 1.5 1.4 1.4.5 2.1 1.2 2.1 2.5 0 1.5-1.1 2.5-3 2.5-.9 0-1.7-.2-2.3-.6l.4-1.1z" class="st1"/>
  <path d="M52.5 88.4c0-1 0-1.9-.1-2.7h1.3l.1 1.4c.6-1 1.6-1.6 2.9-1.6 2 0 3.5 1.7 3.5 4.1 0 2.9-1.8 4.4-3.7 4.4-1.1 0-2-.5-2.5-1.3v4.4h-1.5v-8.7zm1.5 2.2c0 .2 0 .4.1.6.3 1 1.2 1.7 2.2 1.7 1.6 0 2.5-1.3 2.5-3.2 0-1.6-.9-3-2.4-3-1 0-2 .7-2.2 1.8-.2.2-.2.5-.2.6v1.5z" class="st1"/>
  <path d="M63 90.1c0 2 1.3 2.8 2.8 2.8 1.1 0 1.7-.2 2.3-.4l.3 1.1c-.5.2-1.4.5-2.7.5-2.5 0-4-1.7-4-4.1 0-2.5 1.5-4.4 3.8-4.4 2.7 0 3.4 2.3 3.4 3.8 0 .3 0 .5-.1.7H63zm4.3-1.1c0-.9-.4-2.4-2.1-2.4-1.5 0-2.2 1.4-2.3 2.4h4.4z" class="st1"/>
  <path d="M70.6 87.9c0-.9 0-1.5-.1-2.2h1.3l.1 1.4c.4-.8 1.4-1.5 2.7-1.5 1.1 0 2.9.7 2.9 3.5V94H76v-4.7c0-1.3-.5-2.4-1.9-2.4-1 0-1.7.7-2 1.5-.1.2-.1.4-.1.7V94h-1.5v-6.1z" class="st1"/>
  <path d="M87 81.9v9.9c0 .7 0 1.6.1 2.1h-1.3l-.1-1.4h-.1c-.4.9-1.4 1.6-2.8 1.6-2 0-3.5-1.7-3.5-4.2 0-2.7 1.7-4.4 3.7-4.4 1.3 0 2.1.6 2.5 1.2v-4.9H87zM85.6 89c0-.2 0-.4-.1-.6-.2-.9-1-1.7-2.1-1.7-1.5 0-2.5 1.4-2.5 3.1 0 1.7.8 3 2.4 3 1 0 1.9-.7 2.2-1.8.1-.2.1-.4.1-.6V89z" class="st1"/>
  <path d="M94.8 83.4c0 .5-.4.9-.9.9s-.9-.4-.9-.9.4-.9.9-.9.9.4.9.9zm-1.7 10.5v-8.2h1.5v8.2h-1.5z" class="st1"/>
  <path d="M97.1 87.9c0-.9 0-1.5-.1-2.2h1.3l.1 1.4c.4-.8 1.4-1.5 2.7-1.5 1.1 0 2.9.7 2.9 3.5V94h-1.5v-4.7c0-1.3-.5-2.4-1.9-2.4-1 0-1.7.7-2 1.5-.1.2-.1.4-.1.7V94H97v-6.1z" class="st1"/>
  <path d="M111.6 82.5v6.8c0 2.5 1.1 3.6 2.7 3.6 1.7 0 2.8-1.1 2.8-3.6v-6.8h1.5v6.7c0 3.5-1.8 4.9-4.3 4.9-2.3 0-4.1-1.3-4.1-4.9v-6.7h1.4z" class="st1"/>
  <path d="M121 82.5h1.5V88h.1l.9-1.2 3.5-4.3h1.8l-4.1 4.8 4.4 6.6h-1.7l-3.7-5.6-1.1 1.3v4.3H121V82.5z" class="st1"/>
  <path d="M135.4 83.4c0 .5-.4.9-.9.9s-.9-.4-.9-.9.4-.9.9-.9.9.4.9.9zm-1.7 10.5v-8.2h1.5v8.2h-1.5z" class="st1"/>
  <path d="M137.5 92.4c.5.3 1.2.6 2 .6 1.1 0 1.6-.5 1.6-1.2s-.4-1.1-1.5-1.5c-1.5-.5-2.2-1.3-2.2-2.3 0-1.3 1.1-2.4 2.8-2.4.8 0 1.6.2 2 .5l-.4 1.1c-.3-.2-.9-.5-1.7-.5-.9 0-1.4.5-1.4 1.1 0 .7.5 1 1.5 1.4 1.4.5 2.1 1.2 2.1 2.5 0 1.5-1.1 2.5-3 2.5-.9 0-1.7-.2-2.3-.6l.5-1.2z" class="st1"/>
  <path d="M63.6 104.6l-1.9 1-.3-1.1 2.4-1.3H65v11h-1.4v-9.6z" class="st1"/>
  <path d="M69.1 113.3c0-.6.4-1.1 1-1.1s1 .4 1 1.1c0 .6-.4 1.1-1 1.1s-1-.5-1-1.1z" class="st1"/>
  <path d="M78.8 104.2c-.3 0-.7 0-1.1.1-2.4.4-3.6 2.1-3.8 3.9.5-.7 1.5-1.3 2.7-1.3 1.9 0 3.3 1.4 3.3 3.6 0 2-1.4 3.9-3.7 3.9-2.3 0-3.9-1.8-3.9-4.7 0-2.2.8-3.9 1.9-5 .9-.9 2.1-1.5 3.5-1.6.4-.1.8-.1 1.1-.1v1.2zm-.5 6.4c0-1.6-.9-2.5-2.3-2.5-.9 0-1.7.5-2.1 1.4-.1.2-.2.4-.2.6 0 1.8.9 3.2 2.4 3.2 1.4-.1 2.2-1.1 2.2-2.7z" class="st1"/>
  <path d="M85.2 102.2h1.5v5.1c.5-.9 1.5-1.5 2.8-1.5 2 0 3.5 1.7 3.5 4.2 0 2.9-1.9 4.4-3.7 4.4-1.2 0-2.1-.5-2.8-1.5l-.1 1.3h-1.3c0-.6.1-1.4.1-2.1v-9.9zm1.5 8.7c0 .2 0 .4.1.5.3 1 1.1 1.7 2.2 1.7 1.6 0 2.5-1.3 2.5-3.1 0-1.6-.8-3-2.5-3-1 0-1.9.7-2.2 1.8-.1.2-.1.4-.1.6v1.5z" class="st1"/>
  <path d="M96.5 103.7c0 .5-.4.9-.9.9s-.9-.4-.9-.9.4-.9.9-.9.9.4.9.9zm-1.7 10.5V106h1.5v8.2h-1.5z" class="st1"/>
  <path d="M98.8 102.2h1.5v12h-1.5v-12z" class="st1"/>
  <path d="M102.8 102.2h1.5v12h-1.5v-12z" class="st1"/>
  <path d="M108.4 103.7c0 .5-.4.9-.9.9s-.9-.4-.9-.9.4-.9.9-.9c.6 0 .9.4.9.9zm-1.6 10.5V106h1.5v8.2h-1.5z" class="st1"/>
  <path d="M118.1 110c0 3-2.1 4.3-4.1 4.3-2.2 0-3.9-1.6-3.9-4.2 0-2.7 1.8-4.3 4.1-4.3 2.4 0 3.9 1.7 3.9 4.2zm-6.4.1c0 1.8 1 3.1 2.5 3.1 1.4 0 2.5-1.3 2.5-3.2 0-1.4-.7-3.1-2.5-3.1s-2.5 1.7-2.5 3.2z" class="st1"/>
  <path d="M120 108.2c0-.9 0-1.5-.1-2.2h1.3l.1 1.4c.4-.8 1.4-1.5 2.7-1.5 1.1 0 2.9.7 2.9 3.5v4.9h-1.5v-4.7c0-1.3-.5-2.4-1.9-2.4-1 0-1.7.7-2 1.5-.1.2-.1.4-.1.7v4.9H120v-6.1z" class="st1"/>
  <path d="M83.1 123.1v6.8c0 2.5 1.1 3.6 2.7 3.6 1.7 0 2.8-1.1 2.8-3.6v-6.8h1.5v6.7c0 3.5-1.8 4.9-4.3 4.9-2.3 0-4.1-1.3-4.1-4.9v-6.7h1.4z" class="st1"/>
  <path d="M92.4 132.7c.7.4 1.6.7 2.6.7 1.5 0 2.4-.8 2.4-1.9 0-1-.6-1.7-2.1-2.2-1.9-.7-3-1.7-3-3.2 0-1.8 1.5-3.1 3.7-3.1 1.1 0 2 .3 2.5.6l-.4 1.2c-.4-.2-1.1-.5-2.1-.5-1.6 0-2.1.9-2.1 1.7 0 1.1.7 1.6 2.3 2.2 1.9.7 2.9 1.7 2.9 3.3 0 1.8-1.3 3.3-4 3.3-1.1 0-2.3-.3-2.9-.7l.2-1.4z" class="st1"/>
  <path d="M100.9 123.2c.9-.2 2-.3 3.1-.3 2.1 0 3.6.5 4.6 1.4 1 .9 1.6 2.2 1.6 4.1 0 1.9-.6 3.4-1.6 4.4-1.1 1.1-2.8 1.6-5.1 1.6-1.1 0-1.9-.1-2.7-.1v-11.1zm1.5 10.1c.4.1.9.1 1.5.1 3.2 0 4.9-1.8 4.9-4.8 0-2.7-1.5-4.4-4.6-4.4-.8 0-1.3.1-1.7.2v8.9z" class="st1"/>
</svg>
