<svg xmlns="http://www.w3.org/2000/svg" id="Layer_1" viewBox="0 0 189 163">
  <style>
    .st0{fill:#D42380;} .st1{fill:#FFFFFF;}
  </style>
  <path d="M93.8 34.2c-43.8-74-123 15-67.3 60.5 34.6 28.3 63 52.3 67.3 63.4C98.4 147 149.5 104 163.1 93c53.2-51.1-29.3-126.4-69.3-58.8z" class="st0"/>
  <path d="M25.8 41v6.8c0 2.6 1.1 3.6 2.7 3.6 1.7 0 2.8-1.1 2.8-3.6V41h1.5v6.7c0 3.5-1.9 5-4.3 5-2.3 0-4.1-1.3-4.1-4.9V41h1.4z" class="st1"/>
  <path d="M35.3 41h1.5v5.5h.1c.3-.4.6-.9.9-1.2l3.5-4.3h1.8L39 45.9l4.5 6.6h-1.8l-3.8-5.6-1.1 1.3v4.4h-1.5V41z" class="st1"/>
  <path d="M50.6 53.9v-1.7c-1 0-2-.3-2.6-.7l.4-1.1c.6.4 1.5.7 2.4.7 1.2 0 2-.7 2-1.7 0-.9-.7-1.5-1.9-2-1.7-.7-2.8-1.5-2.8-3 0-1.4 1-2.5 2.6-2.7V40h1.1v1.7c1 0 1.7.3 2.2.6l-.4 1.1c-.4-.2-1.1-.6-2.1-.6-1.3 0-1.8.8-1.8 1.5 0 .9.6 1.3 2.1 1.9 1.8.7 2.6 1.6 2.6 3.1 0 1.4-.9 2.6-2.7 2.9V54h-1.1z" class="st1"/>
  <path d="M59.6 42.8l-2 1-.3-1.1 2.4-1.3H61v11.1h-1.4v-9.7z" class="st1"/>
  <path d="M67.1 46.6c-1.2-.6-1.8-1.5-1.8-2.5 0-1.8 1.5-2.9 3.4-2.9 2.1 0 3.2 1.3 3.2 2.7 0 .9-.5 2-1.8 2.6v.1c1.4.5 2.2 1.5 2.2 2.9 0 1.9-1.7 3.2-3.8 3.2-2.3 0-3.7-1.4-3.7-3 .2-1.4 1-2.4 2.3-3.1zm3.8 3c0-1.3-.9-2-2.4-2.4-1.3.4-2 1.2-2 2.3-.1 1.1.8 2.1 2.2 2.1 1.3 0 2.2-.9 2.2-2zm-4.1-5.5c0 1.1.8 1.7 2.1 2 1-.3 1.7-1 1.7-2 0-.9-.5-1.8-1.9-1.8-1.2 0-1.9.8-1.9 1.8z" class="st1"/>
  <path d="M73.9 51.6c0-.6.4-1.1 1-1.1s1 .4 1 1.1c0 .6-.4 1.1-1 1.1-.5 0-1-.5-1-1.1z" class="st1"/>
  <path d="M83.7 42.5c-.3 0-.7 0-1.1.1-2.4.4-3.6 2.1-3.8 3.9.5-.7 1.5-1.3 2.7-1.3 2 0 3.3 1.4 3.3 3.6 0 2-1.4 3.9-3.7 3.9-2.3 0-3.9-1.8-3.9-4.7 0-2.2.8-3.9 1.9-5 .9-.9 2.1-1.5 3.5-1.6.4-.1.8-.1 1.1-.1v1.2zm-.5 6.3c0-1.6-.9-2.5-2.3-2.5-.9 0-1.8.5-2.2 1.4-.1.2-.2.4-.2.6 0 1.8.9 3.2 2.5 3.2 1.4 0 2.2-1.1 2.2-2.7z" class="st1"/>
  <path d="M90.2 40.4h1.5v5.2c.5-.9 1.5-1.5 2.8-1.5 2.1 0 3.5 1.7 3.5 4.2 0 2.9-1.9 4.4-3.7 4.4-1.2 0-2.1-.5-2.8-1.5l-.1 1.3h-1.3c0-.6.1-1.4.1-2.1v-10zm1.4 8.8c0 .2 0 .4.1.5.3 1 1.2 1.8 2.2 1.8 1.6 0 2.5-1.3 2.5-3.2 0-1.7-.9-3.1-2.5-3.1-1 0-2 .7-2.3 1.8-.1.2-.1.4-.1.6v1.6z" class="st1"/>
  <path d="M101.5 41.9c0 .5-.4.9-1 .9-.5 0-.9-.4-.9-.9s.4-.9.9-.9c.6 0 1 .4 1 .9zm-1.7 10.6v-8.2h1.5v8.2h-1.5z" class="st1"/>
  <path d="M103.8 40.4h1.5v12.1h-1.5V40.4z" class="st1"/>
  <path d="M107.8 40.4h1.5v12.1h-1.5V40.4z" class="st1"/>
  <path d="M113.5 41.9c0 .5-.4.9-1 .9-.5 0-.9-.4-.9-.9s.4-.9.9-.9c.7 0 1 .4 1 .9zm-1.6 10.6v-8.2h1.5v8.2h-1.5z" class="st1"/>
  <path d="M123.3 48.3c0 3-2.1 4.4-4.1 4.4-2.2 0-3.9-1.6-3.9-4.2 0-2.7 1.8-4.4 4.1-4.4s3.9 1.7 3.9 4.2zm-6.5.1c0 1.8 1 3.2 2.5 3.2 1.4 0 2.5-1.3 2.5-3.2 0-1.4-.7-3.1-2.5-3.1-1.8-.1-2.5 1.5-2.5 3.1z" class="st1"/>
  <path d="M125.2 46.5c0-.9 0-1.5-.1-2.2h1.3l.1 1.4c.4-.8 1.4-1.5 2.7-1.5 1.1 0 2.9.7 2.9 3.5v4.9h-1.5v-4.7c0-1.3-.5-2.4-1.9-2.4-1 0-1.7.7-2 1.5-.1.2-.1.4-.1.7v5h-1.5v-6.2z" class="st1"/>
  <path d="M139.8 41v6.8c0 2.6 1.1 3.6 2.7 3.6 1.7 0 2.8-1.1 2.8-3.6V41h1.5v6.7c0 3.5-1.9 5-4.3 5-2.3 0-4.1-1.3-4.1-4.9V41h1.4z" class="st1"/>
  <path d="M149.1 50.7c.7.4 1.6.7 2.6.7 1.5 0 2.4-.8 2.4-2 0-1.1-.6-1.7-2.2-2.3-1.9-.7-3-1.7-3-3.3 0-1.8 1.5-3.1 3.7-3.1 1.2 0 2 .3 2.5.6l-.4 1.2c-.4-.2-1.1-.5-2.2-.5-1.6 0-2.2.9-2.2 1.7 0 1.1.7 1.6 2.3 2.2 1.9.7 2.9 1.7 2.9 3.4 0 1.8-1.3 3.3-4 3.3-1.1 0-2.3-.3-2.9-.7l.5-1.2z" class="st1"/>
  <path d="M157.7 41.2c.9-.2 2-.3 3.1-.3 2.1 0 3.6.5 4.6 1.4 1 .9 1.6 2.3 1.6 4.1 0 1.9-.6 3.4-1.7 4.5s-2.9 1.7-5.1 1.7c-1.1 0-1.9-.1-2.7-.1V41.2zm1.5 10.1c.4.1.9.1 1.5.1 3.2 0 4.9-1.8 4.9-4.9 0-2.7-1.5-4.4-4.6-4.4-.8 0-1.3.1-1.7.2v9z" class="st1"/>
  <path d="M25.3 62.7h-3.5v-1.3h8.5v1.3h-3.5v10.2h-1.5V62.7z" class="st1"/>
  <path d="M31.4 60.8h1.5V66c.2-.4.6-.8 1.1-1.1.4-.3 1-.4 1.5-.4 1.1 0 2.9.7 2.9 3.5v4.9h-1.5v-4.7c0-1.3-.5-2.4-1.9-2.4-1 0-1.7.7-2 1.5-.1.2-.1.4-.1.7v5h-1.5V60.8z" class="st1"/>
  <path d="M41.7 69c0 2 1.3 2.9 2.8 2.9 1.1 0 1.7-.2 2.3-.4l.3 1.1c-.5.2-1.4.5-2.8.5-2.5 0-4-1.7-4-4.2s1.5-4.4 3.9-4.4c2.7 0 3.4 2.3 3.4 3.9 0 .3 0 .5-.1.7h-5.8zm4.4-1c0-.9-.4-2.4-2.1-2.4-1.5 0-2.2 1.4-2.3 2.4h4.4z" class="st1"/>
  <path d="M60.5 68.7c0 3-2.1 4.4-4.1 4.4-2.2 0-3.9-1.6-3.9-4.2 0-2.7 1.8-4.4 4.1-4.4s3.9 1.7 3.9 4.2zm-6.6.1c0 1.8 1 3.2 2.5 3.2 1.4 0 2.5-1.3 2.5-3.2 0-1.4-.7-3.1-2.5-3.1-1.7-.1-2.5 1.5-2.5 3.1z" class="st1"/>
  <path d="M62.8 64.7l1.6 4.6c.3.8.5 1.4.7 2.1h.1c.2-.7.4-1.4.7-2.1l1.6-4.6H69l-3.2 8.2h-1.4l-3.1-8.2h1.5z" class="st1"/>
  <path d="M71.1 69c0 2 1.3 2.9 2.8 2.9 1.1 0 1.7-.2 2.3-.4l.3 1.1c-.5.2-1.4.5-2.8.5-2.5 0-4-1.7-4-4.2s1.5-4.4 3.9-4.4c2.7 0 3.4 2.3 3.4 3.9 0 .3 0 .5-.1.7h-5.8zm4.4-1c0-.9-.4-2.4-2.1-2.4-1.5 0-2.2 1.4-2.3 2.4h4.4z" class="st1"/>
  <path d="M78.8 67.2c0-1 0-1.8-.1-2.6H80l.1 1.6h.1c.4-1.1 1.3-1.8 2.3-1.8h.4v1.4h-.5c-1.1 0-1.8.8-2 1.9 0 .2-.1.5-.1.7v4.4h-1.5v-5.6z" class="st1"/>
  <path d="M90 70.9c0 .7 0 1.4.1 2h-1.3l-.1-1h-.1c-.5.6-1.3 1.2-2.5 1.2-1.7 0-2.5-1.2-2.5-2.4 0-2 1.8-3.1 5-3.1v-.2c0-.7-.2-1.9-1.9-1.9-.8 0-1.6.2-2.2.6l-.3-1c.7-.4 1.7-.7 2.7-.7 2.5 0 3.1 1.7 3.1 3.4v3.1zm-1.4-2.2c-1.6 0-3.5.3-3.5 1.9 0 1 .6 1.4 1.4 1.4 1.1 0 1.8-.7 2-1.4.1-.2.1-.3.1-.5v-1.4z" class="st1"/>
  <path d="M92.5 60.8H94v12.1h-1.5V60.8z" class="st1"/>
  <path d="M96.5 60.8H98v12.1h-1.5V60.8z" class="st1"/>
  <path d="M104.9 69c0 2 1.3 2.9 2.8 2.9 1.1 0 1.7-.2 2.3-.4l.3 1.1c-.5.2-1.4.5-2.8.5-2.5 0-4-1.7-4-4.2s1.5-4.4 3.9-4.4c2.7 0 3.4 2.3 3.4 3.9 0 .3 0 .5-.1.7h-5.8zm4.4-1c0-.9-.4-2.4-2.1-2.4-1.5 0-2.2 1.4-2.3 2.4h4.4z" class="st1"/>
  <path d="M113.3 64.7l1.2 1.8c.3.5.6.9.9 1.3.3-.5.5-.9.8-1.3l1.1-1.8h1.6l-2.8 4L119 73h-1.7l-1.2-1.9c-.3-.5-.6-.9-.9-1.4-.3.5-.5.9-.9 1.4l-1.2 1.9h-1.7l2.9-4.2-2.8-4h1.8z" class="st1"/>
  <path d="M120.4 67.3c0-1.1 0-1.9-.1-2.7h1.3l.1 1.4c.6-1 1.6-1.6 2.9-1.6 2 0 3.5 1.7 3.5 4.2 0 3-1.8 4.4-3.8 4.4-1.1 0-2-.5-2.5-1.3v4.5h-1.5v-8.9zm1.5 2.2c0 .2 0 .4.1.6.3 1 1.2 1.8 2.2 1.8 1.6 0 2.5-1.3 2.5-3.2 0-1.6-.9-3-2.5-3-1 0-2 .7-2.3 1.8-.1.2-.1.4-.1.6v1.4z" class="st1"/>
  <path d="M131 69c0 2 1.3 2.9 2.8 2.9 1.1 0 1.7-.2 2.3-.4l.3 1.1c-.5.2-1.4.5-2.8.5-2.5 0-4-1.7-4-4.2s1.5-4.4 3.9-4.4c2.7 0 3.4 2.3 3.4 3.9 0 .3 0 .5-.1.7H131zm4.3-1c0-.9-.4-2.4-2.1-2.4-1.5 0-2.2 1.4-2.3 2.4h4.4z" class="st1"/>
  <path d="M144.5 72.6c-.4.2-1.3.5-2.4.5-2.5 0-4.1-1.7-4.1-4.2s1.7-4.4 4.4-4.4c.9 0 1.7.2 2.1.4l-.3 1.1c-.4-.2-.9-.4-1.7-.4-1.9 0-2.9 1.4-2.9 3.1 0 1.9 1.2 3.1 2.9 3.1.9 0 1.4-.2 1.8-.4l.2 1.2z" class="st1"/>
  <path d="M148.3 62.7v2h2.1v1.1h-2.1v4.4c0 1 .3 1.6 1.1 1.6.4 0 .6 0 .9-.1l.1 1.1c-.3.1-.7.2-1.3.2-.7 0-1.3-.2-1.6-.6-.4-.5-.6-1.2-.6-2.2v-4.5h-1.3v-1.1h1.3v-1.5l1.4-.4z" class="st1"/>
  <path d="M152.9 69c0 2 1.3 2.9 2.8 2.9 1.1 0 1.7-.2 2.3-.4l.3 1.1c-.5.2-1.4.5-2.8.5-2.5 0-4-1.7-4-4.2s1.5-4.4 3.9-4.4c2.7 0 3.4 2.3 3.4 3.9 0 .3 0 .5-.1.7h-5.8zm4.3-1c0-.9-.4-2.4-2.1-2.4-1.5 0-2.2 1.4-2.3 2.4h4.4z" class="st1"/>
  <path d="M167.6 60.8v10c0 .7 0 1.6.1 2.1h-1.3l-.1-1.4h-.1c-.4.9-1.4 1.6-2.8 1.6-2 0-3.5-1.7-3.5-4.2 0-2.7 1.7-4.4 3.7-4.4 1.3 0 2.1.6 2.5 1.2v-4.9h1.5zm-1.4 7.2c0-.2 0-.4-.1-.6-.2-.9-1-1.7-2.2-1.7-1.5 0-2.5 1.4-2.5 3.2 0 1.7.8 3 2.4 3 1 0 1.9-.7 2.2-1.8.1-.2.1-.4.1-.6V68z" class="st1"/>
  <path d="M45.4 91.8c.5.3 1.2.6 2 .6 1.1 0 1.6-.5 1.6-1.2s-.4-1.1-1.5-1.5c-1.5-.5-2.2-1.3-2.2-2.3 0-1.3 1.1-2.4 2.8-2.4.8 0 1.6.2 2 .5l-.4 1.1c-.3-.2-.9-.5-1.7-.5-.9 0-1.4.5-1.4 1.1 0 .7.5 1 1.5 1.4 1.4.5 2.2 1.2 2.2 2.5 0 1.5-1.1 2.5-3.1 2.5-.9 0-1.7-.2-2.3-.6l.5-1.2z" class="st1"/>
  <path d="M52.4 87.8c0-1.1 0-1.9-.1-2.7h1.3l.1 1.4c.6-1 1.6-1.6 2.9-1.6 2 0 3.5 1.7 3.5 4.2 0 3-1.8 4.4-3.8 4.4-1.1 0-2-.5-2.5-1.3v4.5h-1.5v-8.9zm1.5 2.2c0 .2 0 .4.1.6.3 1 1.2 1.8 2.2 1.8 1.6 0 2.5-1.3 2.5-3.2 0-1.6-.9-3-2.5-3-1 0-2 .7-2.3 1.8-.1.2-.1.4-.1.6V90z" class="st1"/>
  <path d="M62.9 89.5c0 2 1.3 2.9 2.8 2.9 1.1 0 1.7-.2 2.3-.4l.3 1.1c-.5.2-1.4.5-2.8.5-2.5 0-4-1.7-4-4.2S63 85 65.4 85c2.7 0 3.4 2.3 3.4 3.9 0 .3 0 .5-.1.7h-5.8zm4.4-1.1c0-.9-.4-2.4-2.1-2.4-1.5 0-2.2 1.4-2.3 2.4h4.4z" class="st1"/>
  <path d="M70.6 87.3c0-.9 0-1.5-.1-2.2h1.3l.1 1.4c.4-.8 1.4-1.5 2.7-1.5 1.1 0 2.9.7 2.9 3.5v4.9H76v-4.7c0-1.3-.5-2.4-1.9-2.4-1 0-1.7.7-2 1.5-.1.2-.1.4-.1.7v5h-1.5v-6.2z" class="st1"/>
  <path d="M87.1 81.2v10c0 .7 0 1.6.1 2.1h-1.3l-.1-1.4h-.1c-.4.9-1.4 1.6-2.8 1.6-2 0-3.5-1.7-3.5-4.2 0-2.7 1.7-4.4 3.7-4.4 1.3 0 2.1.6 2.5 1.2v-4.9h1.5zm-1.5 7.2c0-.2 0-.4-.1-.6-.2-.9-1-1.7-2.2-1.7-1.5 0-2.5 1.4-2.5 3.2 0 1.7.8 3 2.4 3 1 0 1.9-.7 2.2-1.8.1-.2.1-.4.1-.6v-1.5z" class="st1"/>
  <path d="M94.9 82.8c0 .5-.4.9-1 .9-.5 0-.9-.4-.9-.9s.4-.9.9-.9c.6-.1 1 .3 1 .9zm-1.7 10.5v-8.2h1.5v8.2h-1.5z" class="st1"/>
  <path d="M97.2 87.3c0-.9 0-1.5-.1-2.2h1.3l.1 1.4c.4-.8 1.4-1.5 2.7-1.5 1.1 0 2.9.7 2.9 3.5v4.9h-1.5v-4.7c0-1.3-.5-2.4-1.9-2.4-1 0-1.7.7-2 1.5-.1.2-.1.4-.1.7v5h-1.5v-6.2z" class="st1"/>
  <path d="M111.8 81.8v6.8c0 2.6 1.1 3.6 2.7 3.6 1.7 0 2.8-1.1 2.8-3.6v-6.8h1.5v6.7c0 3.5-1.9 5-4.3 5-2.3 0-4.1-1.3-4.1-4.9v-6.8h1.4z" class="st1"/>
  <path d="M121.1 91.5c.7.4 1.6.7 2.6.7 1.5 0 2.4-.8 2.4-2 0-1.1-.6-1.7-2.2-2.3-1.9-.7-3-1.7-3-3.3 0-1.8 1.5-3.1 3.7-3.1 1.2 0 2 .3 2.5.6l-.4 1.2c-.4-.2-1.1-.5-2.2-.5-1.6 0-2.2.9-2.2 1.7 0 1.1.7 1.6 2.3 2.2 1.9.7 2.9 1.7 2.9 3.4 0 1.8-1.3 3.3-4 3.3-1.1 0-2.3-.3-2.9-.7l.5-1.2z" class="st1"/>
  <path d="M134.9 82.8c0 .5-.4.9-1 .9-.5 0-.9-.4-.9-.9s.4-.9.9-.9c.7-.1 1 .3 1 .9zm-1.6 10.5v-8.2h1.5v8.2h-1.5z" class="st1"/>
  <path d="M137.1 91.8c.5.3 1.2.6 2 .6 1.1 0 1.6-.5 1.6-1.2s-.4-1.1-1.5-1.5c-1.5-.5-2.2-1.3-2.2-2.3 0-1.3 1.1-2.4 2.8-2.4.8 0 1.6.2 2 .5l-.4 1.1c-.3-.2-.9-.5-1.7-.5-.9 0-1.4.5-1.4 1.1 0 .7.5 1 1.5 1.4 1.4.5 2.2 1.2 2.2 2.5 0 1.5-1.1 2.5-3.1 2.5-.9 0-1.7-.2-2.3-.6l.5-1.2z" class="st1"/>
  <path d="M58.7 104.1l-2 1-.3-1.1 2.4-1.3h1.3v11.1h-1.4v-9.7z" class="st1"/>
  <path d="M66.2 107.9c-1.2-.6-1.8-1.5-1.8-2.5 0-1.8 1.5-2.9 3.4-2.9 2.1 0 3.2 1.3 3.2 2.7 0 .9-.5 2-1.8 2.6v.1c1.4.5 2.2 1.5 2.2 2.9 0 1.9-1.7 3.2-3.8 3.2-2.3 0-3.7-1.4-3.7-3 .1-1.5 1-2.5 2.3-3.1zm3.8 3c0-1.3-.9-2-2.4-2.4-1.3.4-2 1.2-2 2.3-.1 1.1.8 2.1 2.2 2.1 1.3-.1 2.2-.9 2.2-2zm-4.1-5.6c0 1.1.8 1.7 2.1 2 1-.3 1.7-1 1.7-2 0-.9-.5-1.8-1.9-1.8-1.2.1-1.9.9-1.9 1.8z" class="st1"/>
  <path d="M73 112.8c0-.6.4-1.1 1-1.1s1 .4 1 1.1c0 .6-.4 1.1-1 1.1s-1-.4-1-1.1z" class="st1"/>
  <path d="M82.7 103.7c-.3 0-.7 0-1.1.1-2.4.4-3.6 2.1-3.8 3.9.5-.7 1.5-1.3 2.7-1.3 2 0 3.3 1.4 3.3 3.6 0 2-1.4 3.9-3.7 3.9-2.3 0-3.9-1.8-3.9-4.7 0-2.2.8-3.9 1.9-5 .9-.9 2.1-1.5 3.5-1.6.4-.1.8-.1 1.1-.1v1.2zm-.4 6.4c0-1.6-.9-2.5-2.3-2.5-.9 0-1.8.5-2.2 1.4-.1.2-.2.4-.2.6 0 1.8.9 3.2 2.5 3.2 1.3 0 2.2-1.1 2.2-2.7z" class="st1"/>
  <path d="M89.2 101.6h1.5v5.2c.5-.9 1.5-1.5 2.8-1.5 2.1 0 3.5 1.7 3.5 4.2 0 2.9-1.9 4.4-3.7 4.4-1.2 0-2.1-.5-2.8-1.5l-.1 1.3h-1.3c0-.6.1-1.4.1-2.1v-10zm1.5 8.8c0 .2 0 .4.1.5.3 1 1.2 1.8 2.2 1.8 1.6 0 2.5-1.3 2.5-3.2 0-1.7-.9-3.1-2.5-3.1-1 0-2 .7-2.3 1.8-.1.2-.1.4-.1.6v1.6z" class="st1"/>
  <path d="M100.6 103.2c0 .5-.4.9-1 .9-.5 0-.9-.4-.9-.9s.4-.9.9-.9c.6-.1 1 .4 1 .9zm-1.7 10.5v-8.2h1.5v8.2h-1.5z" class="st1"/>
  <path d="M102.9 101.6h1.5v12.1h-1.5v-12.1z" class="st1"/>
  <path d="M106.9 101.6h1.5v12.1h-1.5v-12.1z" class="st1"/>
  <path d="M112.6 103.2c0 .5-.4.9-1 .9-.5 0-.9-.4-.9-.9s.4-.9.9-.9c.6-.1 1 .4 1 .9zm-1.7 10.5v-8.2h1.5v8.2h-1.5z" class="st1"/>
  <path d="M122.4 109.5c0 3-2.1 4.4-4.1 4.4-2.2 0-3.9-1.6-3.9-4.2 0-2.7 1.8-4.4 4.1-4.4s3.9 1.7 3.9 4.2zm-6.5.1c0 1.8 1 3.2 2.5 3.2 1.4 0 2.5-1.3 2.5-3.2 0-1.4-.7-3.1-2.5-3.1-1.8-.1-2.5 1.6-2.5 3.1z" class="st1"/>
  <path d="M124.3 107.7c0-.9 0-1.5-.1-2.2h1.3l.1 1.4c.4-.8 1.4-1.5 2.7-1.5 1.1 0 2.9.7 2.9 3.5v4.9h-1.5V109c0-1.3-.5-2.4-1.9-2.4-1 0-1.7.7-2 1.5-.1.2-.1.4-.1.7v5h-1.5v-6.1z" class="st1"/>
  <path d="M82.8 122.7v6.8c0 2.6 1.1 3.6 2.7 3.6 1.7 0 2.8-1.1 2.8-3.6v-6.8h1.5v6.7c0 3.5-1.9 5-4.3 5-2.3 0-4.1-1.3-4.1-4.9v-6.8h1.4z" class="st1"/>
  <path d="M92.1 132.3c.7.4 1.6.7 2.6.7 1.5 0 2.4-.8 2.4-2 0-1.1-.6-1.7-2.2-2.3-1.9-.7-3-1.7-3-3.3 0-1.8 1.5-3.1 3.7-3.1 1.2 0 2 .3 2.5.6l-.4 1.2c-.4-.2-1.1-.5-2.2-.5-1.6 0-2.2.9-2.2 1.7 0 1.1.7 1.6 2.3 2.2 1.9.7 2.9 1.7 2.9 3.4 0 1.8-1.3 3.3-4 3.3-1.1 0-2.3-.3-2.9-.7l.5-1.2z" class="st1"/>
  <path d="M100.7 122.9c.9-.2 2-.3 3.1-.3 2.1 0 3.6.5 4.6 1.4 1 .9 1.6 2.3 1.6 4.1 0 1.9-.6 3.4-1.7 4.5s-2.9 1.7-5.1 1.7c-1.1 0-1.9-.1-2.7-.1v-11.3zm1.5 10.1c.4.1.9.1 1.5.1 3.2 0 4.9-1.8 4.9-4.9 0-2.7-1.5-4.4-4.6-4.4-.8 0-1.3.1-1.7.2v9z" class="st1"/>
</svg>
