<svg xmlns="http://www.w3.org/2000/svg" id="Layer_1" xmlns:xlink="http://www.w3.org/1999/xlink" viewBox="0 0 150 150">
  <style>
    .st0{clip-path:url(#SVGID_2_);fill:#065BA6;} .st1{clip-path:url(#SVGID_2_);fill:#FFFFFF;} .st2{clip-path:url(#SVGID_2_);fill:#E12529;}
  </style>
  <defs>
    <path id="SVGID_1_" d="M74.9 37.6C40.6-20.4-21.5 49.3 22.2 85c27.1 22.2 49.4 41 52.7 49.7 3.6-8.7 43.7-42.4 54.3-51 41.7-40.1-23-99.1-54.3-46.1z"/>
  </defs>
  <clipPath id="SVGID_2_">
    <use xlink:href="#SVGID_1_" overflow="visible"/>
  </clipPath>
  <path d="M64.2 19.9v60.6H13.4c-.7-.8-1.3-1.7-1.9-2.5-.3-.4-.6-.8-.8-1.2-2.1-3.1-3.7-6.2-4.8-9.3l-.6-1.8c-.4-1.1-.7-2.3-.9-3.4v-.1c-.5-2.1-.8-4.3-.9-6.4v-1.6c0-1.9.1-3.8.4-5.6.1-.6.2-1.2.3-1.7.2-1.4.6-2.8 1-4.1 1.3-4.3 3.2-8.4 5.8-12.1.9-1.4 2-2.7 3.1-4 1.7-2 3.5-3.8 5.4-5.5 1.1-1 2.3-1.9 3.6-2.8 2-1.4 4.1-2.6 6.3-3.6 1.8-.8 3.6-1.5 5.4-2l2.1-.6c1.7-.4 3.3-.6 5-.7 2.1-.2 4.1-.1 6.1.2 1.7.2 3.3.6 5 1.2 1.4.5 2.8 1.1 4.2 1.8.6.3 1.2.7 1.8 1 1.6 1 3.4 2.4 5.2 4.2z" class="st0"/>
  <path d="M59.1 70.9l1.2 2.5 2.8.4-2 2 .5 2.8-2.5-1.3-2.5 1.3.4-2.8-2-2 2.8-.4z" class="st1"/>
  <path d="M49.6 70.9l1.2 2.5 2.8.4-2 2 .5 2.8-2.5-1.3-2.5 1.3.4-2.8-2-2 2.8-.4z" class="st1"/>
  <path d="M40.4 70.9l1.3 2.5 2.8.4-2.1 2 .5 2.8-2.5-1.3-2.5 1.3.5-2.8-2-2 2.8-.4z" class="st1"/>
  <path d="M31.3 70.9l1.2 2.5 2.8.4-2 2 .5 2.8-2.5-1.3-2.5 1.3.5-2.8-2.1-2 2.8-.4z" class="st1"/>
  <path d="M22.1 70.9l1.3 2.5 2.8.4-2 2 .4 2.8-2.5-1.3-2.5 1.3.5-2.8-2-2 2.8-.4z" class="st1"/>
  <path d="M12.9 70.9l1.2 2.5 2.8.4-2 2 .5 2.8-2.5-1.3-2.5 1.3.4-2.8-2-2 2.8-.4z" class="st1"/>
  <path d="M59.1 63.2l1.2 2.5 2.8.4-2 2 .5 2.8-2.5-1.3-2.5 1.3.4-2.8-2-2 2.8-.4z" class="st1"/>
  <path d="M49.6 63.2l1.2 2.5 2.8.4-2 2 .5 2.8-2.5-1.3-2.5 1.3.4-2.8-2-2 2.8-.4z" class="st1"/>
  <path d="M40.4 63.2l1.3 2.5 2.8.4-2.1 2 .5 2.8-2.5-1.3-2.5 1.3.5-2.8-2-2 2.8-.4z" class="st1"/>
  <path d="M31.3 63.2l1.2 2.5 2.8.4-2 2 .5 2.8-2.5-1.3-2.5 1.3.5-2.8-2.1-2 2.8-.4z" class="st1"/>
  <path d="M22.1 63.2l1.3 2.5 2.8.4-2 2 .4 2.8-2.5-1.3-2.5 1.3.5-2.8-2-2 2.8-.4z" class="st1"/>
  <path d="M12.9 63.2l1.2 2.5 2.8.4-2 2 .5 2.8-2.5-1.3-2.5 1.3.4-2.8-2-2 2.8-.4z" class="st1"/>
  <path d="M59.1 55.5l1.2 2.5 2.8.4-2 2 .5 2.8-2.5-1.3-2.5 1.3.4-2.8-2-2 2.8-.4z" class="st1"/>
  <path d="M49.6 55.5l1.2 2.5 2.8.4-2 2 .5 2.8-2.5-1.3-2.5 1.3.4-2.8-2-2 2.8-.4z" class="st1"/>
  <path d="M40.4 55.5l1.3 2.5 2.8.4-2.1 2 .5 2.8-2.5-1.3-2.5 1.3.5-2.8-2-2 2.8-.4z" class="st1"/>
  <path d="M31.3 55.5l1.2 2.5 2.8.4-2 2 .5 2.8-2.5-1.3-2.5 1.3.5-2.8-2.1-2L30 58z" class="st1"/>
  <path d="M22.1 55.5l1.3 2.5 2.8.4-2 2 .4 2.8-2.5-1.3-2.5 1.3.5-2.8-2-2 2.8-.4z" class="st1"/>
  <path d="M12.9 55.5l1.2 2.5 2.8.4-2 2 .5 2.8-2.5-1.3-2.5 1.3.4-2.8-2-2 2.8-.4z" class="st1"/>
  <path d="M59.1 47.8l1.2 2.5 2.8.4-2 2 .5 2.8-2.5-1.3-2.5 1.3.4-2.8-2-2 2.8-.4z" class="st1"/>
  <path d="M49.6 47.8l1.2 2.5 2.8.4-2 2 .5 2.8-2.5-1.3-2.5 1.3.4-2.8-2-2 2.8-.4z" class="st1"/>
  <path d="M40.4 47.8l1.3 2.5 2.8.4-2.1 2 .5 2.8-2.5-1.3-2.5 1.3.5-2.8-2-2 2.8-.4z" class="st1"/>
  <path d="M31.3 47.8l1.2 2.5 2.8.4-2 2 .5 2.8-2.5-1.3-2.5 1.3.5-2.8-2.1-2 2.8-.4z" class="st1"/>
  <path d="M22.1 47.8l1.3 2.5 2.8.4-2 2 .4 2.8-2.5-1.3-2.5 1.3.5-2.8-2-2 2.8-.4z" class="st1"/>
  <path d="M12.9 47.8l1.2 2.5 2.8.4-2 2 .5 2.8-2.5-1.3-2.5 1.3.4-2.8-2-2 2.8-.4z" class="st1"/>
  <path d="M59.1 40.1l1.2 2.5 2.8.4-2 2 .5 2.8-2.5-1.3-2.5 1.3.4-2.8-2-2 2.8-.4z" class="st1"/>
  <path d="M49.6 40.1l1.2 2.5 2.8.4-2 2 .5 2.8-2.5-1.3-2.5 1.3.4-2.8-2-2 2.8-.4z" class="st1"/>
  <path d="M40.4 40.1l1.3 2.5 2.8.4-2.1 2 .5 2.8-2.5-1.3-2.5 1.3.5-2.8-2-2 2.8-.4z" class="st1"/>
  <path d="M31.3 40.1l1.2 2.5 2.8.4-2 2 .5 2.8-2.5-1.3-2.5 1.3.5-2.8-2.1-2 2.8-.4z" class="st1"/>
  <path d="M22.1 40.1l1.3 2.5 2.8.4-2 2 .4 2.8-2.5-1.3-2.5 1.3.5-2.8-2-2 2.8-.4z" class="st1"/>
  <path d="M12.9 40.1l1.2 2.5 2.8.4-2 2 .5 2.8-2.5-1.3-2.5 1.3.4-2.8-2-2 2.8-.4z" class="st1"/>
  <path d="M59.1 32.4l1.2 2.5 2.8.5-2 1.9.5 2.8-2.5-1.3-2.5 1.3.4-2.8-2-1.9 2.8-.5z" class="st1"/>
  <path d="M49.6 32.4l1.2 2.5 2.8.5-2 1.9.5 2.8-2.5-1.3-2.5 1.3.4-2.8-2-1.9 2.8-.5z" class="st1"/>
  <path d="M40.4 32.4l1.3 2.5 2.8.5-2.1 1.9.5 2.8-2.5-1.3-2.5 1.3.5-2.8-2-1.9 2.8-.5z" class="st1"/>
  <path d="M31.3 32.4l1.2 2.5 2.8.5-2 1.9.5 2.8-2.5-1.3-2.5 1.3.5-2.8-2.1-1.9 2.8-.5z" class="st1"/>
  <path d="M22.1 32.4l1.3 2.5 2.8.5-2 1.9.4 2.8-2.5-1.3-2.5 1.3.5-2.8-2-1.9 2.8-.5z" class="st1"/>
  <path d="M12.9 32.4l1.2 2.5 2.8.5-2 1.9.5 2.8-2.5-1.3-2.5 1.3.4-2.8-2-1.9 2.8-.5z" class="st1"/>
  <path d="M59.1 24.7l1.2 2.6 2.8.4-2 1.9.5 2.8-2.5-1.3-2.5 1.3.4-2.8-2-1.9 2.8-.4z" class="st1"/>
  <path d="M49.6 24.7l1.2 2.6 2.8.4-2 1.9.5 2.8-2.5-1.3-2.5 1.3.4-2.8-2-1.9 2.8-.4z" class="st1"/>
  <path d="M40.4 24.7l1.3 2.6 2.8.4-2.1 1.9.5 2.8-2.5-1.3-2.5 1.3.5-2.8-2-1.9 2.8-.4z" class="st1"/>
  <path d="M31.3 24.7l1.2 2.6 2.8.4-2 1.9.5 2.8-2.5-1.3-2.5 1.3.5-2.8-2.1-1.9 2.8-.4z" class="st1"/>
  <path d="M22.1 24.7l1.3 2.6 2.8.4-2 1.9.4 2.8-2.5-1.3-2.5 1.3.5-2.8-2-1.9 2.8-.4z" class="st1"/>
  <path d="M10.7 30.6s.1-.6 0 0l-.3 1.9 1.5-.8 1-.5 2.5 1.3-.5-2.8 2-2-2-.3-.8-.1s-.3-.4-.3-.7c-.7.3-3.1 4-3.1 4z" class="st1"/>
  <path d="M59.1 17l1.2 2.6 2.8.4-2 1.9.5 2.8-2.5-1.3-2.5 1.3.4-2.8-2-1.9 2.8-.4z" class="st1"/>
  <path d="M49.6 17l1.2 2.6 2.8.4-2 1.9.5 2.8-2.5-1.3-2.5 1.3.4-2.8-2-1.9 2.8-.4z" class="st1"/>
  <path d="M40.4 17l1.3 2.6 2.8.4-2.1 1.9.5 2.8-2.5-1.3-2.5 1.3.5-2.8-2-1.9 2.8-.4z" class="st1"/>
  <path d="M31.3 17l1.2 2.6 2.8.4-2 1.9.5 2.8-2.5-1.3-2.5 1.3.5-2.8-2.1-1.9 2.8-.4z" class="st1"/>
  <path d="M19.2 21.1l.9.9-.5 2.8 2.5-1.3 2.5 1.3-.5-2.8 2-2-2.8-.4-.1-.1s-.4-.6-.6-1.1c-.6.3-3.4 2.7-3.4 2.7z" class="st1"/>
  <path d="M5.3 52.7l.5 2.8-.9-.5-1.6-.9c0-1.9.1-3.8.4-5.6l.9 1.7.6.1 2.1.3-2 2.1z" class="st1"/>
  <path d="M4.2 62.4c.4.2 1.5.8 1.5.8l-.3-1.9V61l-.1-.6 2-2-2.3-.3-.5-.1-1.2-2.4s.3 5.4.9 6.8z" class="st1"/>
  <path d="M5.8 67.6l1-.9.5-.6-.7-.1-1.4-.2z" class="st1"/>
  <path d="M6.4 43.9L5.3 45l.4 2.2.1.6-.2-.1-1.6-.9c.2-1.4.6-2.8 1-4.1l1.7.2.6.1-.9.9z" class="st1"/>
  <path d="M56.9 14.4l-.2 1.7-.1.5.5-.3 1.6-.8z" class="st1"/>
  <path d="M47.8 11.5c-.9 0 0 0 0 0l-2.3.3 1.2 1.2.8.8-.5 2.8 2.5-1.3 2.5 1.3-.4-2.5v-.3l1.2-1.1s-3.5-1.2-5-1.2z" class="st1"/>
  <path d="M36.6 12.1l1.2 1.1.6.6-.5 2.8 2.5-1.3 2.5 1.3-.5-2.8 1.1-1 1-.9-2.8-.4v-.1c-1-.2-5.1.7-5.1.7z" class="st1"/>
  <path d="M33.4 14.3l.4 2.3-2.5-1.3-2.5 1.3.1-.5.2-1.4c1.8-.8 3.6-1.5 5.4-2l-1.2 1.2.1.4z" class="st1"/>
  <path d="M141.6 80.5H64.2v-9.6l83.7-.2c0-.1-3.6 7.4-6.3 9.8z" class="st2"/>
  <path d="M131.8 99.7H16.9v-9.6l124.3-.2c0-.1-5.4 7.4-9.4 9.8z" class="st2"/>
  <path d="M130.9 118.8H16v-9.6l124.3-.2c0-.1-5.3 7.4-9.4 9.8z" class="st2"/>
  <path d="M130.9 138H16v-9.6l124.3-.2s-5.3 7.5-9.4 9.8z" class="st2"/>
  <path d="M151.2 61h-87v-9.6l94.2-.2c-.1 0-4.1 7.5-7.2 9.8z" class="st2"/>
  <path d="M151.1 41.9h-87v-9.6l94.2-.2c-.1 0-4.1 7.5-7.2 9.8z" class="st2"/>
  <path d="M151.1 23.2h-87v-9.6l94.2-.2c-.1 0-4.1 7.5-7.2 9.8z" class="st2"/>
  <path d="M152.3 70.9H64.2v-9.6l91.5-.2c0-.1-.3 5.2-3.4 9.8z" class="st1"/>
  <path d="M138.3 90.1H13.4v-9.6l129.7-.2c0-.1-.4 5.2-4.8 9.8z" class="st1"/>
  <path d="M138.3 109.2H13.4v-9.6l129.7-.2s-.4 5.2-4.8 9.8z" class="st1"/>
  <path d="M138.3 128.4H13.4v-9.6l129.7-.2s-.4 5.3-4.8 9.8z" class="st1"/>
  <path d="M154.8 51.5H64.1v-9.6l94.2-.2c0-.1-.3 5.2-3.5 9.8z" class="st1"/>
  <path d="M154.8 32.4H64.1v-9.6l94.2-.2s-.3 5.2-3.5 9.8z" class="st1"/>
</svg>
